<svg xmlns="http://www.w3.org/2000/svg" width="155" height="20" viewBox="0 0 155 20" fill="none">
  <g clip-path="url(#clip0_4308_4718)">
    <path d="M151.328 4.46143H150.667V4.22662H152.289V4.46143H151.627V6.29727H151.307V4.46143H151.328ZM152.737 4.22662H153.25L153.869 5.82764L154.488 4.22662H155V6.29727H154.68V4.48278L153.997 6.27592H153.783L153.057 4.48278V6.27592H152.737V4.22662ZM145.479 13.3844L150.517 18.4223C150.688 18.5931 150.688 18.8493 150.517 19.02L149.642 19.8953C149.471 20.066 149.215 20.066 149.044 19.8953L144.006 14.8574C143.836 14.6866 143.836 14.4304 144.006 14.2597L144.882 13.3844C145.052 13.2137 145.33 13.2137 145.479 13.3844ZM144.262 17.4404C144.156 17.3336 144.006 17.2909 143.857 17.3336C143.302 17.4831 142.747 17.5684 142.149 17.5684C138.755 17.5684 136.001 14.8574 136.001 11.4846C136.001 8.1331 138.755 5.4007 142.149 5.4007C145.543 5.4007 148.297 8.11176 148.297 11.4846C148.297 12.1036 148.212 12.7013 148.041 13.2564C147.998 13.4058 148.041 13.5552 148.148 13.662L149.194 14.708C149.386 14.9001 149.727 14.836 149.834 14.5799C150.24 13.6193 150.453 12.5733 150.453 11.4846C150.453 6.95902 146.739 3.28735 142.171 3.28735C137.602 3.28735 133.888 6.95902 133.888 11.4846C133.888 16.0101 137.602 19.6818 142.171 19.6818C143.238 19.6818 144.263 19.4897 145.202 19.1268C145.458 19.02 145.543 18.6785 145.33 18.465L144.262 17.4404ZM130.238 4.22662H128.999C128.765 4.22662 128.573 4.41874 128.573 4.65356V18.7639C128.573 18.9987 128.765 19.1908 128.999 19.1908H130.238C130.472 19.1908 130.665 18.9987 130.665 18.7639V4.65356C130.665 4.41874 130.472 4.22662 130.238 4.22662Z" fill="#01A6D2"/>
    <path d="M118.539 4.58959V5.93444C118.539 6.12657 118.369 6.29734 118.177 6.29734H115.487V14.3451C115.487 15.8394 116.341 16.8641 117.835 17.2483C117.984 17.291 118.305 17.3764 118.305 17.7393C118.305 18.1022 118.305 18.401 118.305 18.9561C118.305 19.4257 118.006 19.3617 117.856 19.3403C115.124 18.892 113.416 16.9708 113.416 14.3238V0.405591C113.416 0.192122 113.587 0 113.822 0H115.103C115.316 0 115.508 0.170775 115.508 0.405591V4.22669H118.198C118.39 4.22669 118.539 4.37612 118.539 4.58959ZM107.823 14.644C107.098 16.4371 105.198 17.5472 102.551 17.5472C99.1778 17.5472 96.4667 14.8361 96.4667 11.506C96.4667 8.17587 99.1992 5.46481 102.551 5.46481C105.176 5.46481 106.991 6.57485 107.802 8.30395C107.951 8.6455 108.015 8.81628 108.378 8.81628C108.741 8.81628 109.574 8.81628 109.851 8.81628C110.129 8.81628 110.193 8.51742 110.15 8.36799C109.339 5.40077 106.393 3.39416 102.551 3.39416C98.0464 3.39416 94.3747 7.02314 94.3747 11.506C94.3747 15.9675 98.0464 19.6178 102.551 19.6178C106.35 19.6178 109.296 17.6539 110.129 14.708C110.171 14.5373 110.107 14.1957 109.809 14.1957C109.51 14.1957 108.741 14.1957 108.378 14.1957C108.015 14.217 107.887 14.5159 107.823 14.644ZM89.465 15.5406C89.7852 15.5406 90.1267 15.5406 90.5963 15.5406C91.3221 15.5406 91.1727 15.9461 91.066 16.1596C90.1481 18.273 87.4797 19.6392 84.0215 19.6392C79.4959 19.6392 75.8243 15.9888 75.8243 11.5273C75.8243 7.04448 79.4959 3.41551 84.0215 3.41551C86.4337 3.41551 88.6965 4.37612 90.1908 6.06253C91.5996 7.6422 92.2827 9.71285 92.1547 12.1037C92.1547 12.2531 92.112 12.5733 91.5143 12.5733C91.0446 12.5733 79.7308 12.5733 78.2578 12.5733C78.1084 12.5733 78.1084 12.7441 78.1084 12.7441C78.2365 15.0282 80.7767 17.5899 83.9788 17.5899C85.9854 17.5899 87.4156 17.0775 88.2695 16.2237C88.7605 15.7327 88.8672 15.5406 89.465 15.5406ZM78.1724 10.4813C79.5386 10.4813 89.529 10.4813 89.8065 10.4813C90.0627 10.4813 89.9986 10.2892 89.9986 10.2892C89.4223 8.34665 87.3516 5.46481 84.0215 5.46481C80.7554 5.46481 78.578 8.28261 78.0657 10.2892C78.0657 10.2892 78.0017 10.4813 78.1724 10.4813ZM65.0868 3.39416C63.5284 3.39416 62.1836 3.67167 61.0735 4.24804C60.5826 4.48285 60.1983 4.71767 59.2377 5.52885C59.2377 5.52885 56.8895 7.85567 56.8895 11.4846C56.8895 12.4453 56.8895 18.6786 56.8895 18.6786C56.8895 18.9561 57.103 19.1695 57.3805 19.1695H58.4692C58.7467 19.1695 58.9602 18.9561 58.9602 18.6786V11.506C58.9602 10.524 59.2164 9.54207 59.7287 8.51742C60.2624 7.38603 61.6713 5.46481 65.0654 5.46481C67.5417 5.46481 69.3775 6.51081 70.4021 8.51742C70.9358 9.52073 71.192 10.5027 71.192 11.506V18.6786C71.192 18.9561 71.4054 19.1695 71.683 19.1695H72.7717C73.0492 19.1695 73.2626 18.9561 73.2626 18.6786V11.506C73.3053 4.184 67.563 3.39416 65.0868 3.39416ZM45.3836 3.39416C43.8252 3.39416 42.4804 3.67167 41.3703 4.24804C40.8794 4.48285 40.4951 4.71767 39.5345 5.52885C39.5345 5.52885 37.1863 7.85567 37.1863 11.4846C37.1863 12.4453 37.1863 18.6786 37.1863 18.6786C37.1863 18.9561 37.3998 19.1695 37.6773 19.1695H38.766C39.0435 19.1695 39.257 18.9561 39.257 18.6786V11.506C39.257 10.524 39.5132 9.54207 40.0255 8.51742C40.5592 7.38603 41.968 5.46481 45.3622 5.46481C47.8385 5.46481 49.6743 6.51081 50.6989 8.51742C51.2326 9.52073 51.4888 10.5027 51.4888 11.506V18.6786C51.4888 18.9561 51.7022 19.1695 51.9798 19.1695H53.0685C53.346 19.1695 53.5594 18.9561 53.5594 18.6786V11.506C53.6021 4.184 47.8598 3.39416 45.3836 3.39416ZM26.6837 5.42212C29.6082 5.42212 31.999 7.40738 32.6181 10.0971H34.7955C34.1551 6.31869 30.7396 3.33012 26.7263 3.33012C22.6491 3.33012 19.2122 6.25465 18.4651 10.0971H20.6425C21.3256 7.40738 23.7805 5.42212 26.6837 5.42212ZM34.7528 12.9362C34.0056 16.7787 30.5688 19.7032 26.4702 19.7032C22.3929 19.7032 19.0628 16.7787 18.4224 12.9362H20.5998C21.2188 15.6046 23.6097 17.6112 26.5129 17.6112C29.4374 17.6112 31.8923 15.6046 32.5967 12.9362H34.7528ZM13.4699 14.644C12.7441 16.4371 10.8442 17.5472 8.19722 17.5472C4.8244 17.5472 2.11335 14.8361 2.11335 11.506C2.11335 8.17587 4.84575 5.46481 8.19722 5.46481C10.8229 5.46481 12.6374 6.57485 13.4486 8.30395C13.598 8.6455 13.6407 8.81628 14.0249 8.81628C14.3878 8.81628 15.2204 8.81628 15.4979 8.81628C15.7754 8.81628 15.8394 8.51742 15.7967 8.36799C14.9855 5.40077 12.0397 3.39416 8.19722 3.39416C3.67167 3.39416 0 7.04448 0 11.506C0 15.9675 3.67167 19.6178 8.17587 19.6178C11.9756 19.6178 14.9215 17.6539 15.754 14.708C15.7967 14.5373 15.754 14.1957 15.4552 14.1957C15.1563 14.1957 14.3878 14.1957 14.0036 14.1957C13.6407 14.217 13.5126 14.5159 13.4699 14.644Z" fill="black"/>
  </g>
  <defs>
    <clipPath id="clip0_4308_4718">
      <rect width="155" height="20" fill="white"/>
    </clipPath>
  </defs>
</svg>